<mxfile host="app.diagrams.net" modified="2023-09-12T01:47:05.945Z" agent="Mozilla/5.0 (Windows NT 10.0; Win64; x64) AppleWebKit/537.36 (KHTML, like Gecko) Chrome/116.0.0.0 Safari/537.36" version="21.7.4" etag="TAMORVcNf6fehtokzz3u" type="github">
  <diagram name="Halaman-1" id="fdWzg0FEzOtI_t1xyY0S">
    <mxGraphModel>
      <root>
        <mxCell id="0" />
        <mxCell id="1" parent="0" />
      </root>
    </mxGraphModel>
  </diagram>
</mxfile>
